<svg width="333" height="60" viewBox="0 0 333 60" fill="none" xmlns="http://www.w3.org/2000/svg">
<g id="Group 1171">
<g id="Group 1105">
<g id="Group 1091">
<g id="Rectangle 301" filter="url(#filter0_d_2132_24135)">
<rect x="10" y="4.25" width="319" height="45" rx="12" fill="#AEDEFF"/>
</g>
<g id="Group 1092">
<path id="Para escrever esta se&#195;&#167;&#195;&#163;o &#194;&#160;" d="M67.88 33V19H73.64C74.88 19 75.94 19.2 76.82 19.6C77.7133 20 78.4 20.5733 78.88 21.32C79.36 22.0667 79.6 22.9533 79.6 23.98C79.6 25.0067 79.36 25.8933 78.88 26.64C78.4 27.3867 77.7133 27.96 76.82 28.36C75.94 28.76 74.88 28.96 73.64 28.96H69.32L70.48 27.74V33H67.88ZM70.48 28.02L69.32 26.76H73.52C74.6667 26.76 75.5267 26.52 76.1 26.04C76.6867 25.5467 76.98 24.86 76.98 23.98C76.98 23.0867 76.6867 22.4 76.1 21.92C75.5267 21.44 74.6667 21.2 73.52 21.2H69.32L70.48 19.92V28.02ZM88.4388 33V30.84L88.2988 30.38V26.6C88.2988 25.8667 88.0788 25.3 87.6388 24.9C87.1988 24.4867 86.5321 24.28 85.6388 24.28C85.0388 24.28 84.4454 24.3733 83.8588 24.56C83.2854 24.7467 82.7988 25.0067 82.3988 25.34L81.4188 23.52C81.9921 23.08 82.6721 22.7533 83.4588 22.54C84.2588 22.3133 85.0854 22.2 85.9388 22.2C87.4854 22.2 88.6788 22.5733 89.5188 23.32C90.3721 24.0533 90.7988 25.1933 90.7988 26.74V33H88.4388ZM85.0788 33.14C84.2788 33.14 83.5788 33.0067 82.9788 32.74C82.3788 32.46 81.9121 32.08 81.5788 31.6C81.2588 31.1067 81.0988 30.5533 81.0988 29.94C81.0988 29.34 81.2388 28.8 81.5188 28.32C81.8121 27.84 82.2854 27.46 82.9388 27.18C83.5921 26.9 84.4588 26.76 85.5388 26.76H88.6388V28.42H85.7188C84.8654 28.42 84.2921 28.56 83.9988 28.84C83.7054 29.1067 83.5588 29.44 83.5588 29.84C83.5588 30.2933 83.7388 30.6533 84.0988 30.92C84.4588 31.1867 84.9588 31.32 85.5988 31.32C86.2121 31.32 86.7588 31.18 87.2388 30.9C87.7321 30.62 88.0854 30.2067 88.2988 29.66L88.7188 31.16C88.4788 31.7867 88.0454 32.2733 87.4188 32.62C86.8054 32.9667 86.0254 33.14 85.0788 33.14ZM94.0072 33V22.32H96.3872V25.26L96.1072 24.4C96.4272 23.68 96.9272 23.1333 97.6072 22.76C98.3005 22.3867 99.1605 22.2 100.187 22.2V24.58C100.081 24.5533 99.9805 24.54 99.8872 24.54C99.7939 24.5267 99.7005 24.52 99.6072 24.52C98.6605 24.52 97.9072 24.8 97.3472 25.36C96.7872 25.9067 96.5072 26.7267 96.5072 27.82V33H94.0072ZM108.126 33V30.84L107.986 30.38V26.6C107.986 25.8667 107.766 25.3 107.326 24.9C106.886 24.4867 106.22 24.28 105.326 24.28C104.726 24.28 104.133 24.3733 103.546 24.56C102.973 24.7467 102.486 25.0067 102.086 25.34L101.106 23.52C101.68 23.08 102.36 22.7533 103.146 22.54C103.946 22.3133 104.773 22.2 105.626 22.2C107.173 22.2 108.366 22.5733 109.206 23.32C110.06 24.0533 110.486 25.1933 110.486 26.74V33H108.126ZM104.766 33.14C103.966 33.14 103.266 33.0067 102.666 32.74C102.066 32.46 101.6 32.08 101.266 31.6C100.946 31.1067 100.786 30.5533 100.786 29.94C100.786 29.34 100.926 28.8 101.206 28.32C101.5 27.84 101.973 27.46 102.626 27.18C103.28 26.9 104.146 26.76 105.226 26.76H108.326V28.42H105.406C104.553 28.42 103.98 28.56 103.686 28.84C103.393 29.1067 103.246 29.44 103.246 29.84C103.246 30.2933 103.426 30.6533 103.786 30.92C104.146 31.1867 104.646 31.32 105.286 31.32C105.9 31.32 106.446 31.18 106.926 30.9C107.42 30.62 107.773 30.2067 107.986 29.66L108.406 31.16C108.166 31.7867 107.733 32.2733 107.106 32.62C106.493 32.9667 105.713 33.14 104.766 33.14ZM124.242 33.14C123.055 33.14 122.015 32.9067 121.122 32.44C120.242 31.96 119.555 31.3067 119.062 30.48C118.582 29.6533 118.342 28.7133 118.342 27.66C118.342 26.5933 118.575 25.6533 119.042 24.84C119.522 24.0133 120.175 23.3667 121.002 22.9C121.842 22.4333 122.795 22.2 123.862 22.2C124.902 22.2 125.829 22.4267 126.642 22.88C127.455 23.3333 128.095 23.9733 128.562 24.8C129.029 25.6267 129.262 26.6 129.262 27.72C129.262 27.8267 129.255 27.9467 129.242 28.08C129.242 28.2133 129.235 28.34 129.222 28.46H120.322V26.8H127.902L126.922 27.32C126.935 26.7067 126.809 26.1667 126.542 25.7C126.275 25.2333 125.909 24.8667 125.442 24.6C124.989 24.3333 124.462 24.2 123.862 24.2C123.249 24.2 122.709 24.3333 122.242 24.6C121.789 24.8667 121.429 25.24 121.162 25.72C120.909 26.1867 120.782 26.74 120.782 27.38V27.78C120.782 28.42 120.929 28.9867 121.222 29.48C121.515 29.9733 121.929 30.3533 122.462 30.62C122.995 30.8867 123.609 31.02 124.302 31.02C124.902 31.02 125.442 30.9267 125.922 30.74C126.402 30.5533 126.829 30.26 127.202 29.86L128.542 31.4C128.062 31.96 127.455 32.3933 126.722 32.7C126.002 32.9933 125.175 33.14 124.242 33.14ZM134.963 33.14C134.07 33.14 133.21 33.0267 132.383 32.8C131.57 32.56 130.923 32.2733 130.443 31.94L131.403 30.04C131.883 30.3467 132.457 30.6 133.123 30.8C133.79 31 134.457 31.1 135.123 31.1C135.91 31.1 136.477 30.9933 136.823 30.78C137.183 30.5667 137.363 30.28 137.363 29.92C137.363 29.6267 137.243 29.4067 137.003 29.26C136.763 29.1 136.45 28.98 136.063 28.9C135.677 28.82 135.243 28.7467 134.763 28.68C134.297 28.6133 133.823 28.5267 133.343 28.42C132.877 28.3 132.45 28.1333 132.063 27.92C131.677 27.6933 131.363 27.3933 131.123 27.02C130.883 26.6467 130.763 26.1533 130.763 25.54C130.763 24.86 130.957 24.2733 131.343 23.78C131.73 23.2733 132.27 22.8867 132.963 22.62C133.67 22.34 134.503 22.2 135.463 22.2C136.183 22.2 136.91 22.28 137.643 22.44C138.377 22.6 138.983 22.8267 139.463 23.12L138.503 25.02C137.997 24.7133 137.483 24.5067 136.963 24.4C136.457 24.28 135.95 24.22 135.443 24.22C134.683 24.22 134.117 24.3333 133.743 24.56C133.383 24.7867 133.203 25.0733 133.203 25.42C133.203 25.74 133.323 25.98 133.563 26.14C133.803 26.3 134.117 26.4267 134.503 26.52C134.89 26.6133 135.317 26.6933 135.783 26.76C136.263 26.8133 136.737 26.9 137.203 27.02C137.67 27.14 138.097 27.3067 138.483 27.52C138.883 27.72 139.203 28.0067 139.443 28.38C139.683 28.7533 139.803 29.24 139.803 29.84C139.803 30.5067 139.603 31.0867 139.203 31.58C138.817 32.0733 138.263 32.46 137.543 32.74C136.823 33.0067 135.963 33.14 134.963 33.14ZM146.856 33.14C145.736 33.14 144.736 32.9067 143.856 32.44C142.99 31.96 142.31 31.3067 141.816 30.48C141.323 29.6533 141.076 28.7133 141.076 27.66C141.076 26.5933 141.323 25.6533 141.816 24.84C142.31 24.0133 142.99 23.3667 143.856 22.9C144.736 22.4333 145.736 22.2 146.856 22.2C147.896 22.2 148.81 22.4133 149.596 22.84C150.396 23.2533 151.003 23.8667 151.416 24.68L149.496 25.8C149.176 25.2933 148.783 24.92 148.316 24.68C147.863 24.44 147.37 24.32 146.836 24.32C146.223 24.32 145.67 24.4533 145.176 24.72C144.683 24.9867 144.296 25.3733 144.016 25.88C143.736 26.3733 143.596 26.9667 143.596 27.66C143.596 28.3533 143.736 28.9533 144.016 29.46C144.296 29.9533 144.683 30.3333 145.176 30.6C145.67 30.8667 146.223 31 146.836 31C147.37 31 147.863 30.88 148.316 30.64C148.783 30.4 149.176 30.0267 149.496 29.52L151.416 30.64C151.003 31.44 150.396 32.06 149.596 32.5C148.81 32.9267 147.896 33.14 146.856 33.14ZM153.578 33V22.32H155.958V25.26L155.678 24.4C155.998 23.68 156.498 23.1333 157.178 22.76C157.871 22.3867 158.731 22.2 159.758 22.2V24.58C159.651 24.5533 159.551 24.54 159.458 24.54C159.364 24.5267 159.271 24.52 159.178 24.52C158.231 24.52 157.478 24.8 156.918 25.36C156.358 25.9067 156.078 26.7267 156.078 27.82V33H153.578ZM166.801 33.14C165.614 33.14 164.574 32.9067 163.681 32.44C162.801 31.96 162.114 31.3067 161.621 30.48C161.141 29.6533 160.901 28.7133 160.901 27.66C160.901 26.5933 161.134 25.6533 161.601 24.84C162.081 24.0133 162.734 23.3667 163.561 22.9C164.401 22.4333 165.354 22.2 166.421 22.2C167.461 22.2 168.387 22.4267 169.201 22.88C170.014 23.3333 170.654 23.9733 171.121 24.8C171.587 25.6267 171.821 26.6 171.821 27.72C171.821 27.8267 171.814 27.9467 171.801 28.08C171.801 28.2133 171.794 28.34 171.781 28.46H162.881V26.8H170.461L169.481 27.32C169.494 26.7067 169.367 26.1667 169.101 25.7C168.834 25.2333 168.467 24.8667 168.001 24.6C167.547 24.3333 167.021 24.2 166.421 24.2C165.807 24.2 165.267 24.3333 164.801 24.6C164.347 24.8667 163.987 25.24 163.721 25.72C163.467 26.1867 163.341 26.74 163.341 27.38V27.78C163.341 28.42 163.487 28.9867 163.781 29.48C164.074 29.9733 164.487 30.3533 165.021 30.62C165.554 30.8867 166.167 31.02 166.861 31.02C167.461 31.02 168.001 30.9267 168.481 30.74C168.961 30.5533 169.387 30.26 169.761 29.86L171.101 31.4C170.621 31.96 170.014 32.3933 169.281 32.7C168.561 32.9933 167.734 33.14 166.801 33.14ZM176.867 33L172.287 22.32H174.887L178.827 31.74H177.547L181.627 22.32H184.027L179.447 33H176.867ZM190.316 33.14C189.13 33.14 188.09 32.9067 187.196 32.44C186.316 31.96 185.63 31.3067 185.136 30.48C184.656 29.6533 184.416 28.7133 184.416 27.66C184.416 26.5933 184.65 25.6533 185.116 24.84C185.596 24.0133 186.25 23.3667 187.076 22.9C187.916 22.4333 188.87 22.2 189.936 22.2C190.976 22.2 191.903 22.4267 192.716 22.88C193.53 23.3333 194.17 23.9733 194.636 24.8C195.103 25.6267 195.336 26.6 195.336 27.72C195.336 27.8267 195.33 27.9467 195.316 28.08C195.316 28.2133 195.31 28.34 195.296 28.46H186.396V26.8H193.976L192.996 27.32C193.01 26.7067 192.883 26.1667 192.616 25.7C192.35 25.2333 191.983 24.8667 191.516 24.6C191.063 24.3333 190.536 24.2 189.936 24.2C189.323 24.2 188.783 24.3333 188.316 24.6C187.863 24.8667 187.503 25.24 187.236 25.72C186.983 26.1867 186.856 26.74 186.856 27.38V27.78C186.856 28.42 187.003 28.9867 187.296 29.48C187.59 29.9733 188.003 30.3533 188.536 30.62C189.07 30.8867 189.683 31.02 190.376 31.02C190.976 31.02 191.516 30.9267 191.996 30.74C192.476 30.5533 192.903 30.26 193.276 29.86L194.616 31.4C194.136 31.96 193.53 32.3933 192.796 32.7C192.076 32.9933 191.25 33.14 190.316 33.14ZM197.738 33V22.32H200.118V25.26L199.838 24.4C200.158 23.68 200.658 23.1333 201.338 22.76C202.031 22.3867 202.891 22.2 203.918 22.2V24.58C203.811 24.5533 203.711 24.54 203.618 24.54C203.524 24.5267 203.431 24.52 203.338 24.52C202.391 24.52 201.638 24.8 201.078 25.36C200.518 25.9067 200.238 26.7267 200.238 27.82V33H197.738ZM216.683 33.14C215.497 33.14 214.457 32.9067 213.563 32.44C212.683 31.96 211.997 31.3067 211.503 30.48C211.023 29.6533 210.783 28.7133 210.783 27.66C210.783 26.5933 211.017 25.6533 211.483 24.84C211.963 24.0133 212.617 23.3667 213.443 22.9C214.283 22.4333 215.237 22.2 216.303 22.2C217.343 22.2 218.27 22.4267 219.083 22.88C219.897 23.3333 220.537 23.9733 221.003 24.8C221.47 25.6267 221.703 26.6 221.703 27.72C221.703 27.8267 221.697 27.9467 221.683 28.08C221.683 28.2133 221.677 28.34 221.663 28.46H212.763V26.8H220.343L219.363 27.32C219.377 26.7067 219.25 26.1667 218.983 25.7C218.717 25.2333 218.35 24.8667 217.883 24.6C217.43 24.3333 216.903 24.2 216.303 24.2C215.69 24.2 215.15 24.3333 214.683 24.6C214.23 24.8667 213.87 25.24 213.603 25.72C213.35 26.1867 213.223 26.74 213.223 27.38V27.78C213.223 28.42 213.37 28.9867 213.663 29.48C213.957 29.9733 214.37 30.3533 214.903 30.62C215.437 30.8867 216.05 31.02 216.743 31.02C217.343 31.02 217.883 30.9267 218.363 30.74C218.843 30.5533 219.27 30.26 219.643 29.86L220.983 31.4C220.503 31.96 219.897 32.3933 219.163 32.7C218.443 32.9933 217.617 33.14 216.683 33.14ZM227.405 33.14C226.512 33.14 225.652 33.0267 224.825 32.8C224.012 32.56 223.365 32.2733 222.885 31.94L223.845 30.04C224.325 30.3467 224.898 30.6 225.565 30.8C226.232 31 226.898 31.1 227.565 31.1C228.352 31.1 228.918 30.9933 229.265 30.78C229.625 30.5667 229.805 30.28 229.805 29.92C229.805 29.6267 229.685 29.4067 229.445 29.26C229.205 29.1 228.892 28.98 228.505 28.9C228.118 28.82 227.685 28.7467 227.205 28.68C226.738 28.6133 226.265 28.5267 225.785 28.42C225.318 28.3 224.892 28.1333 224.505 27.92C224.118 27.6933 223.805 27.3933 223.565 27.02C223.325 26.6467 223.205 26.1533 223.205 25.54C223.205 24.86 223.398 24.2733 223.785 23.78C224.172 23.2733 224.712 22.8867 225.405 22.62C226.112 22.34 226.945 22.2 227.905 22.2C228.625 22.2 229.352 22.28 230.085 22.44C230.818 22.6 231.425 22.8267 231.905 23.12L230.945 25.02C230.438 24.7133 229.925 24.5067 229.405 24.4C228.898 24.28 228.392 24.22 227.885 24.22C227.125 24.22 226.558 24.3333 226.185 24.56C225.825 24.7867 225.645 25.0733 225.645 25.42C225.645 25.74 225.765 25.98 226.005 26.14C226.245 26.3 226.558 26.4267 226.945 26.52C227.332 26.6133 227.758 26.6933 228.225 26.76C228.705 26.8133 229.178 26.9 229.645 27.02C230.112 27.14 230.538 27.3067 230.925 27.52C231.325 27.72 231.645 28.0067 231.885 28.38C232.125 28.7533 232.245 29.24 232.245 29.84C232.245 30.5067 232.045 31.0867 231.645 31.58C231.258 32.0733 230.705 32.46 229.985 32.74C229.265 33.0067 228.405 33.14 227.405 33.14ZM238.418 33.14C237.244 33.14 236.338 32.84 235.698 32.24C235.058 31.6267 234.738 30.7267 234.738 29.54V19.96H237.238V29.48C237.238 29.9867 237.364 30.38 237.618 30.66C237.884 30.94 238.251 31.08 238.718 31.08C239.278 31.08 239.744 30.9333 240.118 30.64L240.818 32.42C240.524 32.66 240.164 32.84 239.738 32.96C239.311 33.08 238.871 33.14 238.418 33.14ZM232.978 24.32V22.32H240.098V24.32H232.978ZM249.083 33V30.84L248.943 30.38V26.6C248.943 25.8667 248.723 25.3 248.283 24.9C247.843 24.4867 247.177 24.28 246.283 24.28C245.683 24.28 245.09 24.3733 244.503 24.56C243.93 24.7467 243.443 25.0067 243.043 25.34L242.063 23.52C242.637 23.08 243.317 22.7533 244.103 22.54C244.903 22.3133 245.73 22.2 246.583 22.2C248.13 22.2 249.323 22.5733 250.163 23.32C251.017 24.0533 251.443 25.1933 251.443 26.74V33H249.083ZM245.723 33.14C244.923 33.14 244.223 33.0067 243.623 32.74C243.023 32.46 242.557 32.08 242.223 31.6C241.903 31.1067 241.743 30.5533 241.743 29.94C241.743 29.34 241.883 28.8 242.163 28.32C242.457 27.84 242.93 27.46 243.583 27.18C244.237 26.9 245.103 26.76 246.183 26.76H249.283V28.42H246.363C245.51 28.42 244.937 28.56 244.643 28.84C244.35 29.1067 244.203 29.44 244.203 29.84C244.203 30.2933 244.383 30.6533 244.743 30.92C245.103 31.1867 245.603 31.32 246.243 31.32C246.857 31.32 247.403 31.18 247.883 30.9C248.377 30.62 248.73 30.2067 248.943 29.66L249.363 31.16C249.123 31.7867 248.69 32.2733 248.063 32.62C247.45 32.9667 246.67 33.14 245.723 33.14ZM263.479 33.14C262.586 33.14 261.726 33.0267 260.899 32.8C260.086 32.56 259.439 32.2733 258.959 31.94L259.919 30.04C260.399 30.3467 260.972 30.6 261.639 30.8C262.306 31 262.972 31.1 263.639 31.1C264.426 31.1 264.992 30.9933 265.339 30.78C265.699 30.5667 265.879 30.28 265.879 29.92C265.879 29.6267 265.759 29.4067 265.519 29.26C265.279 29.1 264.966 28.98 264.579 28.9C264.192 28.82 263.759 28.7467 263.279 28.68C262.812 28.6133 262.339 28.5267 261.859 28.42C261.392 28.3 260.966 28.1333 260.579 27.92C260.192 27.6933 259.879 27.3933 259.639 27.02C259.399 26.6467 259.279 26.1533 259.279 25.54C259.279 24.86 259.472 24.2733 259.859 23.78C260.246 23.2733 260.786 22.8867 261.479 22.62C262.186 22.34 263.019 22.2 263.979 22.2C264.699 22.2 265.426 22.28 266.159 22.44C266.892 22.6 267.499 22.8267 267.979 23.12L267.019 25.02C266.512 24.7133 265.999 24.5067 265.479 24.4C264.972 24.28 264.466 24.22 263.959 24.22C263.199 24.22 262.632 24.3333 262.259 24.56C261.899 24.7867 261.719 25.0733 261.719 25.42C261.719 25.74 261.839 25.98 262.079 26.14C262.319 26.3 262.632 26.4267 263.019 26.52C263.406 26.6133 263.832 26.6933 264.299 26.76C264.779 26.8133 265.252 26.9 265.719 27.02C266.186 27.14 266.612 27.3067 266.999 27.52C267.399 27.72 267.719 28.0067 267.959 28.38C268.199 28.7533 268.319 29.24 268.319 29.84C268.319 30.5067 268.119 31.0867 267.719 31.58C267.332 32.0733 266.779 32.46 266.059 32.74C265.339 33.0067 264.479 33.14 263.479 33.14ZM275.492 33.14C274.305 33.14 273.265 32.9067 272.372 32.44C271.492 31.96 270.805 31.3067 270.312 30.48C269.832 29.6533 269.592 28.7133 269.592 27.66C269.592 26.5933 269.825 25.6533 270.292 24.84C270.772 24.0133 271.425 23.3667 272.252 22.9C273.092 22.4333 274.045 22.2 275.112 22.2C276.152 22.2 277.079 22.4267 277.892 22.88C278.705 23.3333 279.345 23.9733 279.812 24.8C280.279 25.6267 280.512 26.6 280.512 27.72C280.512 27.8267 280.505 27.9467 280.492 28.08C280.492 28.2133 280.485 28.34 280.472 28.46H271.572V26.8H279.152L278.172 27.32C278.185 26.7067 278.059 26.1667 277.792 25.7C277.525 25.2333 277.159 24.8667 276.692 24.6C276.239 24.3333 275.712 24.2 275.112 24.2C274.499 24.2 273.959 24.3333 273.492 24.6C273.039 24.8667 272.679 25.24 272.412 25.72C272.159 26.1867 272.032 26.74 272.032 27.38V27.78C272.032 28.42 272.179 28.9867 272.472 29.48C272.765 29.9733 273.179 30.3533 273.712 30.62C274.245 30.8867 274.859 31.02 275.552 31.02C276.152 31.02 276.692 30.9267 277.172 30.74C277.652 30.5533 278.079 30.26 278.452 29.86L279.792 31.4C279.312 31.96 278.705 32.3933 277.972 32.7C277.252 32.9933 276.425 33.14 275.492 33.14ZM287.813 33.14C286.693 33.14 285.693 32.9067 284.813 32.44C283.947 31.96 283.267 31.3067 282.773 30.48C282.28 29.6533 282.033 28.7133 282.033 27.66C282.033 26.5933 282.28 25.6533 282.773 24.84C283.267 24.0133 283.947 23.3667 284.813 22.9C285.693 22.4333 286.693 22.2 287.813 22.2C288.853 22.2 289.767 22.4133 290.553 22.84C291.353 23.2533 291.96 23.8667 292.373 24.68L290.453 25.8C290.133 25.2933 289.74 24.92 289.273 24.68C288.82 24.44 288.327 24.32 287.793 24.32C287.18 24.32 286.627 24.4533 286.133 24.72C285.64 24.9867 285.253 25.3733 284.973 25.88C284.693 26.3733 284.553 26.9667 284.553 27.66C284.553 28.3533 284.693 28.9533 284.973 29.46C285.253 29.9533 285.64 30.3333 286.133 30.6C286.627 30.8667 287.18 31 287.793 31C288.327 31 288.82 30.88 289.273 30.64C289.74 30.4 290.133 30.0267 290.453 29.52L292.373 30.64C291.96 31.44 291.353 32.06 290.553 32.5C289.767 32.9267 288.853 33.14 287.813 33.14ZM286.933 37.56C286.573 37.56 286.24 37.52 285.933 37.44C285.627 37.3733 285.347 37.2733 285.093 37.14L285.553 35.96C285.767 36.0667 285.98 36.1467 286.193 36.2C286.42 36.2533 286.66 36.28 286.913 36.28C287.3 36.28 287.573 36.2133 287.733 36.08C287.893 35.9467 287.973 35.7733 287.973 35.56C287.973 35.36 287.887 35.2 287.713 35.08C287.553 34.96 287.287 34.9 286.913 34.9H286.293L286.833 32.86H288.193L287.913 33.98C288.5 34.0467 288.933 34.2333 289.213 34.54C289.507 34.86 289.653 35.2333 289.653 35.66C289.653 36.2467 289.407 36.7067 288.913 37.04C288.42 37.3867 287.76 37.56 286.933 37.56ZM301.115 33V30.84L300.975 30.38V26.6C300.975 25.8667 300.755 25.3 300.315 24.9C299.875 24.4867 299.208 24.28 298.315 24.28C297.715 24.28 297.121 24.3733 296.535 24.56C295.961 24.7467 295.475 25.0067 295.075 25.34L294.095 23.52C294.668 23.08 295.348 22.7533 296.135 22.54C296.935 22.3133 297.761 22.2 298.615 22.2C300.161 22.2 301.355 22.5733 302.195 23.32C303.048 24.0533 303.475 25.1933 303.475 26.74V33H301.115ZM297.755 33.14C296.955 33.14 296.255 33.0067 295.655 32.74C295.055 32.46 294.588 32.08 294.255 31.6C293.935 31.1067 293.775 30.5533 293.775 29.94C293.775 29.34 293.915 28.8 294.195 28.32C294.488 27.84 294.961 27.46 295.615 27.18C296.268 26.9 297.135 26.76 298.215 26.76H301.315V28.42H298.395C297.541 28.42 296.968 28.56 296.675 28.84C296.381 29.1067 296.235 29.44 296.235 29.84C296.235 30.2933 296.415 30.6533 296.775 30.92C297.135 31.1867 297.635 31.32 298.275 31.32C298.888 31.32 299.435 31.18 299.915 30.9C300.408 30.62 300.761 30.2067 300.975 29.66L301.395 31.16C301.155 31.7867 300.721 32.2733 300.095 32.62C299.481 32.9667 298.701 33.14 297.755 33.14ZM300.275 20.86C299.955 20.86 299.661 20.8 299.395 20.68C299.141 20.5467 298.908 20.3933 298.695 20.22C298.495 20.0333 298.301 19.8733 298.115 19.74C297.928 19.6067 297.741 19.54 297.555 19.54C297.275 19.54 297.048 19.6467 296.875 19.86C296.701 20.0733 296.601 20.3667 296.575 20.74H295.235C295.261 19.9133 295.461 19.26 295.835 18.78C296.221 18.3 296.741 18.06 297.395 18.06C297.715 18.06 298.008 18.1267 298.275 18.26C298.541 18.3933 298.775 18.5467 298.975 18.72C299.188 18.8933 299.388 19.0467 299.575 19.18C299.761 19.3133 299.941 19.38 300.115 19.38C300.395 19.38 300.621 19.28 300.795 19.08C300.981 18.88 301.081 18.6 301.095 18.24H302.435C302.421 19.0133 302.221 19.6467 301.835 20.14C301.448 20.62 300.928 20.86 300.275 20.86ZM311.503 33.14C310.409 33.14 309.436 32.9067 308.583 32.44C307.729 31.96 307.056 31.3067 306.563 30.48C306.069 29.6533 305.823 28.7133 305.823 27.66C305.823 26.5933 306.069 25.6533 306.563 24.84C307.056 24.0133 307.729 23.3667 308.583 22.9C309.436 22.4333 310.409 22.2 311.503 22.2C312.609 22.2 313.589 22.4333 314.443 22.9C315.309 23.3667 315.983 24.0067 316.463 24.82C316.956 25.6333 317.203 26.58 317.203 27.66C317.203 28.7133 316.956 29.6533 316.463 30.48C315.983 31.3067 315.309 31.96 314.443 32.44C313.589 32.9067 312.609 33.14 311.503 33.14ZM311.503 31C312.116 31 312.663 30.8667 313.143 30.6C313.623 30.3333 313.996 29.9467 314.263 29.44C314.543 28.9333 314.683 28.34 314.683 27.66C314.683 26.9667 314.543 26.3733 314.263 25.88C313.996 25.3733 313.623 24.9867 313.143 24.72C312.663 24.4533 312.123 24.32 311.523 24.32C310.909 24.32 310.363 24.4533 309.883 24.72C309.416 24.9867 309.043 25.3733 308.763 25.88C308.483 26.3733 308.343 26.9667 308.343 27.66C308.343 28.34 308.483 28.9333 308.763 29.44C309.043 29.9467 309.416 30.3333 309.883 30.6C310.363 30.8667 310.903 31 311.503 31Z" fill="#3E464C"/>
</g>
<g id="Ellipse 74" filter="url(#filter1_d_2132_24135)">
<circle cx="27" cy="27" r="26" fill="#AEDEFF"/>
</g>
</g>
</g>
<path id="Vector" d="M24.4886 30.5831L17.2008 37.8724C17.0811 37.9921 16.939 38.0871 16.7826 38.1519C16.6262 38.2167 16.4585 38.25 16.2892 38.25C16.1199 38.25 15.9523 38.2167 15.7959 38.1519C15.6394 38.0871 15.4973 37.9921 15.3776 37.8724C15.2579 37.7527 15.1629 37.6105 15.0981 37.4541C15.0333 37.2977 15 37.1301 15 36.9607C15 36.7914 15.0333 36.6238 15.0981 36.4674C15.1629 36.3109 15.2579 36.1688 15.3776 36.0491L22.6667 28.7611L17.2008 23.2925C18.2282 22.2639 19.4894 21.4993 20.8765 21.0639C22.2636 20.6286 23.7355 20.5356 25.1664 20.7928L29.9558 16.0045C30.439 15.5214 31.0944 15.25 31.7777 15.25C32.461 15.25 33.1164 15.5214 33.5997 16.0045L37.2448 19.6485C37.4843 19.8879 37.6742 20.172 37.8037 20.4847C37.9333 20.7975 38 21.1327 38 21.4712C38 21.8097 37.9333 22.1449 37.8037 22.4576C37.6742 22.7704 37.4843 23.0545 37.2448 23.2938L32.4568 28.082C32.714 29.5133 32.6208 30.9855 32.1853 32.3729C31.7498 33.7603 30.9848 35.0217 29.9558 36.0491L24.4886 30.5831Z" fill="#0044FF"/>
</g>
<defs>
<filter id="filter0_d_2132_24135" x="6" y="4.25" width="327" height="53" filterUnits="userSpaceOnUse" color-interpolation-filters="sRGB">
<feFlood flood-opacity="0" result="BackgroundImageFix"/>
<feColorMatrix in="SourceAlpha" type="matrix" values="0 0 0 0 0 0 0 0 0 0 0 0 0 0 0 0 0 0 127 0" result="hardAlpha"/>
<feOffset dy="4"/>
<feGaussianBlur stdDeviation="2"/>
<feComposite in2="hardAlpha" operator="out"/>
<feColorMatrix type="matrix" values="0 0 0 0 0 0 0 0 0 0 0 0 0 0 0 0 0 0 0.13 0"/>
<feBlend mode="normal" in2="BackgroundImageFix" result="effect1_dropShadow_2132_24135"/>
<feBlend mode="normal" in="SourceGraphic" in2="effect1_dropShadow_2132_24135" result="shape"/>
</filter>
<filter id="filter1_d_2132_24135" x="0" y="0" width="60" height="60" filterUnits="userSpaceOnUse" color-interpolation-filters="sRGB">
<feFlood flood-opacity="0" result="BackgroundImageFix"/>
<feColorMatrix in="SourceAlpha" type="matrix" values="0 0 0 0 0 0 0 0 0 0 0 0 0 0 0 0 0 0 127 0" result="hardAlpha"/>
<feOffset dx="3" dy="3"/>
<feGaussianBlur stdDeviation="2"/>
<feComposite in2="hardAlpha" operator="out"/>
<feColorMatrix type="matrix" values="0 0 0 0 0 0 0 0 0 0 0 0 0 0 0 0 0 0 0.25 0"/>
<feBlend mode="normal" in2="BackgroundImageFix" result="effect1_dropShadow_2132_24135"/>
<feBlend mode="normal" in="SourceGraphic" in2="effect1_dropShadow_2132_24135" result="shape"/>
</filter>
</defs>
</svg>
