<svg width="32" height="32" viewBox="0 0 32 32" fill="none" xmlns="http://www.w3.org/2000/svg">
<g filter="url(#filter0_d_2354_163)">
<rect x="4" width="24" height="24" rx="12" fill="white"/>
<path d="M11.255 8.58372L14.3718 9.15221H14.3804L12.8867 10.6889L8.73387 9.93387L8 5.66137L9.49365 4.13357L10.0376 7.34017L11.0046 6.34533C11.7248 5.60192 12.5806 5.01209 13.5229 4.60963C14.4652 4.20717 15.4754 4 16.4957 4C17.5159 4 18.5262 4.20717 19.4684 4.60963C20.4107 5.01209 21.2665 5.60192 21.9868 6.34533C22.0208 6.38145 22.0524 6.41846 22.0818 6.45636C22.1111 6.49485 22.1428 6.53186 22.1767 6.56739C22.3062 6.70951 22.4358 6.86051 22.5566 7.01152C22.6343 7.10922 22.712 7.21581 22.7897 7.3224C22.9279 7.51782 23.0488 7.71324 23.1696 7.91753L23.2016 7.96816C23.2206 7.996 23.2387 8.02649 23.256 8.05965C23.4153 8.35223 23.5566 8.65484 23.679 8.96567L23.6963 9.01009C23.9985 9.79175 24.1798 10.6001 24.2402 11.4261L22.4789 11.1685C22.3912 10.5218 22.2078 9.89277 21.935 9.30321L21.8832 9.19662C21.7564 8.93786 21.6121 8.68854 21.4515 8.45049C21.4365 8.43331 21.4221 8.41407 21.4083 8.39275C21.2169 8.10493 21.0001 7.83583 20.7608 7.58888C19.6283 6.42431 18.0926 5.77011 16.4914 5.77011C14.8901 5.77011 13.3545 6.42431 12.2219 7.58888L11.255 8.58372ZM20.1046 13.3003L24.2575 14.0554L24.2661 14.0642L25 18.3367L23.5063 19.8734L22.9538 16.6668L21.9868 17.6617C18.9477 20.7794 14.0264 20.7794 10.9959 17.6617L10.7887 17.4218C9.5894 16.0923 8.86747 14.3813 8.74251 12.572L10.5038 12.8296C10.6765 14.1353 11.2463 15.3966 12.2219 16.4004C12.4205 16.6047 12.6364 16.7912 12.8522 16.96C15.2179 18.7986 18.6023 18.621 20.7608 16.4004L21.7278 15.4055L18.611 14.837L20.1046 13.3003Z" fill="#0E2F53"/>
</g>
<defs>
<filter id="filter0_d_2354_163" x="0" y="0" width="32" height="32" filterUnits="userSpaceOnUse" color-interpolation-filters="sRGB">
<feFlood flood-opacity="0" result="BackgroundImageFix"/>
<feColorMatrix in="SourceAlpha" type="matrix" values="0 0 0 0 0 0 0 0 0 0 0 0 0 0 0 0 0 0 127 0" result="hardAlpha"/>
<feOffset dy="4"/>
<feGaussianBlur stdDeviation="2"/>
<feComposite in2="hardAlpha" operator="out"/>
<feColorMatrix type="matrix" values="0 0 0 0 0.133333 0 0 0 0 0.152941 0 0 0 0 0.164706 0 0 0 0.15 0"/>
<feBlend mode="normal" in2="BackgroundImageFix" result="effect1_dropShadow_2354_163"/>
<feBlend mode="normal" in="SourceGraphic" in2="effect1_dropShadow_2354_163" result="shape"/>
</filter>
</defs>
</svg>
